<svg width="18" height="19" viewBox="0 0 18 19" fill="none" xmlns="http://www.w3.org/2000/svg">
<path fill-rule="evenodd" clip-rule="evenodd" d="M6.6606 10.1913H12.9358C13.8166 10.1913 13.8166 8.86383 12.9358 8.86383H6.6606L8.91748 6.596C9.52298 5.98755 8.5872 5.04723 7.9817 5.65567L4.6239 9.02977C4.34867 9.30634 4.34867 9.69353 4.6239 9.97009L7.9817 13.3442C8.5872 13.9526 9.52298 13.0676 8.91748 12.4039L6.6606 10.1913Z" fill="#464F60"/>
<path d="M9.02752 0.456299C13.9817 0.456299 18 4.49415 18 9.52765C18 14.5058 13.9817 18.5437 9.02752 18.5437C4.01835 18.5437 0 14.5058 0 9.52765C0 4.49415 4.01835 0.456299 9.02752 0.456299ZM9.02752 1.83913C4.78899 1.83913 1.37615 5.26854 1.37615 9.52765C1.37615 13.7314 4.78899 17.2162 9.02752 17.2162C13.211 17.2162 16.6789 13.7314 16.6789 9.52765C16.6789 5.26854 13.211 1.83913 9.02752 1.83913Z" fill="#464F60"/>
</svg>
